<?xml version="1.0" encoding="UTF-8"?>
<svg xmlns="http://www.w3.org/2000/svg" xmlns:xlink="http://www.w3.org/1999/xlink" viewBox="0 0 120 120" width="120px" height="120px">
<g id="surface111580498">
<path style=" stroke:none;fill-rule:nonzero;fill:rgb(0%,0%,0%);fill-opacity:1;" d="M 105.5 55.25 L 64.75 14.5 C 63.5 13.25 61.75 12.5 60 12.5 C 58.25 12.5 56.5 13.25 55.25 14.5 L 46.5 23.25 L 56.75 33.5 C 57.75 33 58.75 32.75 60 32.75 C 64.25 32.75 67.5 36 67.5 40.25 C 67.5 41.5 67.25 42.5 66.75 43.5 L 76.75 53.5 C 77.75 53 78.75 52.75 80 52.75 C 84.25 52.75 87.5 56 87.5 60.25 C 87.5 64.5 84.25 67.75 80 67.75 C 75.75 67.75 72.5 64.5 72.5 60.25 C 72.5 59 72.75 58 73.25 57 L 63.25 47 C 63 47 62.75 47.25 62.5 47.25 L 62.5 73.25 C 65.5 74.25 67.5 77 67.5 80.25 C 67.5 84.5 64.25 87.75 60 87.75 C 55.75 87.75 52.5 84.5 52.5 80.25 C 52.5 77 54.5 74.25 57.5 73.25 L 57.5 47 C 54.5 46 52.5 43.25 52.5 40 C 52.5 38.75 52.75 37.75 53.25 36.75 L 43 26.5 L 14.5 55.25 C 13.25 56.5 12.5 58.25 12.5 60 C 12.5 61.75 13.25 63.5 14.5 64.75 L 55.25 105.5 C 56.5 106.75 58.25 107.5 60 107.5 C 61.75 107.5 63.5 106.75 64.75 105.5 L 105.5 64.75 C 106.75 63.5 107.5 61.75 107.5 60 C 107.5 58.25 106.75 56.5 105.5 55.25 Z M 105.5 55.25 "/>
</g>
</svg>
